<svg width="24" height="24" viewBox="0 0 24 24" fill="none" xmlns="http://www.w3.org/2000/svg">
<g opacity="0.4">
<path d="M12.857 3.18896H11.143C10.462 3.18896 10.121 3.18896 9.812 3.28296C9.538 3.36596 9.283 3.50296 9.062 3.68396C8.812 3.88896 8.624 4.17296 8.246 4.73996L7.103 6.45396C5.579 6.45396 4.817 6.45396 4.235 6.74996C3.72325 7.0112 3.30737 7.42778 3.047 7.93997C2.75 8.52097 2.75 9.28296 2.75 10.807V16.458C2.75 17.982 2.75 18.744 3.047 19.326C3.307 19.838 3.724 20.254 4.235 20.515C4.817 20.811 5.579 20.811 7.103 20.811H16.897C18.421 20.811 19.183 20.811 19.765 20.515C20.2767 20.2537 20.6926 19.8372 20.953 19.325C21.25 18.744 21.25 17.982 21.25 16.458V10.807C21.25 9.28296 21.25 8.52096 20.953 7.93896C20.6925 7.42715 20.2766 7.01094 19.765 6.74996C19.183 6.45396 18.421 6.45396 16.897 6.45396L15.754 4.73996C15.376 4.17296 15.187 3.88996 14.938 3.68396C14.7165 3.50279 14.4617 3.36658 14.188 3.28296C13.879 3.18896 13.538 3.18896 12.857 3.18896Z" stroke="black" stroke-width="1.5" stroke-linecap="round" stroke-linejoin="round"/>
<path d="M15.7746 13.212C15.7746 13.7078 15.677 14.1986 15.4873 14.6566C15.2975 15.1146 15.0195 15.5308 14.6689 15.8813C14.3184 16.2319 13.9022 16.5099 13.4442 16.6997C12.9862 16.8894 12.4953 16.987 11.9996 16.987C11.5039 16.987 11.013 16.8894 10.555 16.6997C10.097 16.5099 9.68082 16.2319 9.33028 15.8813C8.97974 15.5308 8.70168 15.1146 8.51196 14.6566C8.32225 14.1986 8.22461 13.7078 8.22461 13.212C8.22461 12.2108 8.62233 11.2506 9.33028 10.5427C10.0382 9.83473 10.9984 9.43701 11.9996 9.43701C13.0008 9.43701 13.961 9.83473 14.6689 10.5427C15.3769 11.2506 15.7746 12.2108 15.7746 13.212Z" stroke="black" stroke-width="1.5" stroke-linecap="round" stroke-linejoin="round"/>
</g>
</svg>
