<svg width="24" height="24" viewBox="0 0 24 24" fill="none" xmlns="http://www.w3.org/2000/svg">
<mask id="mask0_1778_10403" style="mask-type:alpha" maskUnits="userSpaceOnUse" x="0" y="0" width="24" height="24">
<rect width="24" height="24" fill="#D9D9D9"/>
</mask>
<g mask="url(#mask0_1778_10403)">
<path d="M5.09625 20.2436V18.6328H6.62875L8.55575 11.6963C8.66992 11.2721 8.8885 10.9351 9.2115 10.6852C9.53467 10.4354 9.89367 10.3105 10.2885 10.3105H13.2115C13.6063 10.3105 13.9653 10.4354 14.2885 10.6852C14.6115 10.9351 14.8301 11.2721 14.9443 11.6963L16.8712 18.6328H18.4038V20.2436H5.09625ZM8.2095 18.6328H15.2905L13.5 12.1588C13.4808 12.083 13.444 12.0244 13.3895 11.9833C13.335 11.9419 13.2725 11.9212 13.202 11.9212H10.298C10.2275 11.9212 10.165 11.9419 10.1105 11.9833C10.056 12.0244 10.0192 12.083 10 12.1588L8.2095 18.6328ZM11 7.83228V2.99994H12.5V7.83228H11ZM16.7 10.3765L15.6307 9.22829L18.825 5.82498L19.8693 6.94635L16.7 10.3765ZM18 15.3493V13.7385H22.5V15.3493H18ZM6.8 10.3765L3.63075 6.94635L4.675 5.82498L7.86925 9.22829L6.8 10.3765ZM1 15.3493V13.7385H5.5V15.3493H1Z" fill="#1C1B1F"/>
</g>
</svg>
