<svg width="27" height="27" viewBox="0 0 27 27" fill="none" xmlns="http://www.w3.org/2000/svg">
<path d="M20.25 1.6875H6.75C3.95406 1.6875 1.6875 3.95406 1.6875 6.75V20.25C1.6875 23.0459 3.95406 25.3125 6.75 25.3125H20.25C23.0459 25.3125 25.3125 23.0459 25.3125 20.25V6.75C25.3125 3.95406 23.0459 1.6875 20.25 1.6875Z" fill="url(#paint0_radial_1636_25082)"/>
<path d="M20.25 1.6875H6.75C3.95406 1.6875 1.6875 3.95406 1.6875 6.75V20.25C1.6875 23.0459 3.95406 25.3125 6.75 25.3125H20.25C23.0459 25.3125 25.3125 23.0459 25.3125 20.25V6.75C25.3125 3.95406 23.0459 1.6875 20.25 1.6875Z" fill="url(#paint1_radial_1636_25082)"/>
<path d="M20.25 1.6875H6.75C3.95406 1.6875 1.6875 3.95406 1.6875 6.75V20.25C1.6875 23.0459 3.95406 25.3125 6.75 25.3125H20.25C23.0459 25.3125 25.3125 23.0459 25.3125 20.25V6.75C25.3125 3.95406 23.0459 1.6875 20.25 1.6875Z" fill="url(#paint2_radial_1636_25082)"/>
<path d="M19.4062 8.85938C19.4062 9.55834 18.8396 10.125 18.1406 10.125C17.4417 10.125 16.875 9.55834 16.875 8.85938C16.875 8.16039 17.4417 7.59375 18.1406 7.59375C18.8396 7.59375 19.4062 8.16039 19.4062 8.85938Z" fill="white"/>
<path fill-rule="evenodd" clip-rule="evenodd" d="M13.5 17.7188C15.8299 17.7188 17.7188 15.8299 17.7188 13.5C17.7188 11.1701 15.8299 9.28125 13.5 9.28125C11.1701 9.28125 9.28125 11.1701 9.28125 13.5C9.28125 15.8299 11.1701 17.7188 13.5 17.7188ZM13.5 16.0312C14.898 16.0312 16.0312 14.898 16.0312 13.5C16.0312 12.102 14.898 10.9688 13.5 10.9688C12.102 10.9688 10.9688 12.102 10.9688 13.5C10.9688 14.898 12.102 16.0312 13.5 16.0312Z" fill="white"/>
<path fill-rule="evenodd" clip-rule="evenodd" d="M5.0625 13.1625C5.0625 10.3272 5.0625 8.90958 5.61428 7.82668C6.09964 6.8741 6.8741 6.09964 7.82668 5.61428C8.90958 5.0625 10.3272 5.0625 13.1625 5.0625H13.8375C16.6728 5.0625 18.0904 5.0625 19.1733 5.61428C20.1259 6.09964 20.9004 6.8741 21.3857 7.82668C21.9375 8.90958 21.9375 10.3272 21.9375 13.1625V13.8375C21.9375 16.6728 21.9375 18.0904 21.3857 19.1733C20.9004 20.1259 20.1259 20.9004 19.1733 21.3857C18.0904 21.9375 16.6728 21.9375 13.8375 21.9375H13.1625C10.3272 21.9375 8.90958 21.9375 7.82668 21.3857C6.8741 20.9004 6.09964 20.1259 5.61428 19.1733C5.0625 18.0904 5.0625 16.6728 5.0625 13.8375V13.1625ZM13.1625 6.75H13.8375C15.283 6.75 16.2656 6.75132 17.0251 6.81337C17.765 6.87381 18.1433 6.98337 18.4073 7.11785C19.0423 7.44143 19.5585 7.95774 19.8821 8.59275C20.0166 8.85667 20.1262 9.23501 20.1866 9.9749C20.2486 10.7344 20.25 11.717 20.25 13.1625V13.8375C20.25 15.283 20.2486 16.2656 20.1866 17.0251C20.1262 17.765 20.0166 18.1433 19.8821 18.4073C19.5585 19.0423 19.0423 19.5585 18.4073 19.8821C18.1433 20.0166 17.765 20.1262 17.0251 20.1866C16.2656 20.2486 15.283 20.25 13.8375 20.25H13.1625C11.717 20.25 10.7344 20.2486 9.9749 20.1866C9.23501 20.1262 8.85667 20.0166 8.59275 19.8821C7.95774 19.5585 7.44143 19.0423 7.11785 18.4073C6.98337 18.1433 6.87381 17.765 6.81337 17.0251C6.75132 16.2656 6.75 15.283 6.75 13.8375V13.1625C6.75 11.717 6.75132 10.7344 6.81337 9.9749C6.87381 9.23501 6.98337 8.85667 7.11785 8.59275C7.44143 7.95774 7.95774 7.44143 8.59275 7.11785C8.85667 6.98337 9.23501 6.87381 9.9749 6.81337C10.7344 6.75132 11.717 6.75 13.1625 6.75Z" fill="white"/>
<defs>
<radialGradient id="paint0_radial_1636_25082" cx="0" cy="0" r="1" gradientUnits="userSpaceOnUse" gradientTransform="translate(10.125 19.4063) rotate(-55.3758) scale(21.5322)">
<stop stop-color="#B13589"/>
<stop offset="0.79309" stop-color="#C62F94"/>
<stop offset="1" stop-color="#8A3AC8"/>
</radialGradient>
<radialGradient id="paint1_radial_1636_25082" cx="0" cy="0" r="1" gradientUnits="userSpaceOnUse" gradientTransform="translate(9.28125 26.1563) rotate(-65.1363) scale(19.0639)">
<stop stop-color="#E0E8B7"/>
<stop offset="0.444662" stop-color="#FB8A2E"/>
<stop offset="0.71474" stop-color="#E2425C"/>
<stop offset="1" stop-color="#E2425C" stop-opacity="0"/>
</radialGradient>
<radialGradient id="paint2_radial_1636_25082" cx="0" cy="0" r="1" gradientUnits="userSpaceOnUse" gradientTransform="translate(0.421875 2.53125) rotate(-8.1301) scale(32.8142 7.01862)">
<stop offset="0.156701" stop-color="#406ADC"/>
<stop offset="0.467799" stop-color="#6A45BE"/>
<stop offset="1" stop-color="#6A45BE" stop-opacity="0"/>
</radialGradient>
</defs>
</svg>
