<svg width="19" height="18" viewBox="0 0 19 18" fill="none" xmlns="http://www.w3.org/2000/svg">
<path fill-rule="evenodd" clip-rule="evenodd" d="M12.2901 3.546L13.6626 4.9185C15.6794 6.936 16.6874 7.944 16.6874 9.1965C16.6874 10.4498 15.6794 11.4578 13.6626 13.4745C11.6451 15.492 10.6371 16.5 9.3839 16.5C8.1314 16.5 7.12265 15.492 5.1059 13.4753L3.7334 12.1027C2.57465 10.9432 1.9949 10.3643 1.77965 9.612C1.56365 8.85975 1.74815 8.061 2.11715 6.46425L2.3294 5.54325C2.63915 4.19925 2.7944 3.52725 3.25415 3.06675C3.7139 2.60625 4.38665 2.45175 5.73065 2.142L6.65165 1.929C8.24915 1.56075 9.04715 1.37625 9.7994 1.5915C10.5517 1.8075 11.1314 2.38725 12.2901 3.546ZM8.5469 10.746C8.04215 10.242 8.0459 9.5175 8.34815 8.94375C8.27332 8.83567 8.23871 8.7048 8.25033 8.57386C8.26195 8.44292 8.31905 8.32018 8.41174 8.22696C8.50442 8.13374 8.62683 8.07593 8.7577 8.06356C8.88857 8.05119 9.01964 8.08505 9.12815 8.15925C9.38315 8.02425 9.6629 7.95225 9.9419 7.95525C10.0911 7.95664 10.2336 8.01724 10.3381 8.12372C10.4426 8.23019 10.5005 8.37382 10.4991 8.523C10.4978 8.67219 10.4372 8.81471 10.3307 8.91921C10.2242 9.02372 10.0806 9.08164 9.9314 9.08025C9.75774 9.08667 9.59361 9.16132 9.47465 9.288C9.1844 9.57825 9.26015 9.86925 9.3419 9.951C9.4244 10.0328 9.71465 10.1085 10.0049 9.81825C10.5929 9.23025 11.6084 9.03525 12.2586 9.6855C12.7634 10.1903 12.7597 10.9148 12.4574 11.4885C12.5318 11.5966 12.566 11.7273 12.5542 11.858C12.5423 11.9886 12.4852 12.1111 12.3926 12.2041C12.3001 12.2971 12.1779 12.3548 12.0473 12.3672C11.9167 12.3797 11.7859 12.3461 11.6774 12.2723C11.3408 12.4569 10.9504 12.5184 10.5734 12.4462C10.4272 12.4162 10.2989 12.3293 10.2168 12.2047C10.1346 12.0801 10.1054 11.928 10.1354 11.7818C10.1654 11.6355 10.2523 11.5073 10.3769 11.4251C10.5016 11.343 10.6537 11.3137 10.7999 11.3438C10.9326 11.3715 11.1472 11.328 11.3309 11.1443C11.6212 10.8533 11.5454 10.563 11.4636 10.4813C11.3811 10.3995 11.0909 10.3238 10.8006 10.614C10.2127 11.202 9.19715 11.397 8.5469 10.746ZM7.7024 7.71975C7.84167 7.58043 7.95213 7.41505 8.02748 7.23305C8.10283 7.05104 8.1416 6.85597 8.14156 6.65899C8.14153 6.462 8.10269 6.26695 8.02728 6.08497C7.95186 5.90299 7.84134 5.73764 7.70202 5.59838C7.56271 5.45911 7.39733 5.34865 7.21532 5.27329C7.03331 5.19794 6.83825 5.15918 6.64126 5.15921C6.44427 5.15925 6.24922 5.19808 6.06724 5.2735C5.88526 5.34891 5.71992 5.45943 5.58065 5.59875C5.29939 5.88011 5.14142 6.26168 5.14149 6.65952C5.14156 7.05735 5.29966 7.43886 5.58103 7.72013C5.86239 8.00139 6.24395 8.15936 6.64179 8.15929C7.03962 8.15922 7.42114 8.00111 7.7024 7.71975Z" fill="black"/>
</svg>
