<svg width="24" height="24" viewBox="0 0 24 24" fill="none" xmlns="http://www.w3.org/2000/svg">
<path d="M9.5 22C8.51667 22 7.68733 21.6627 7.012 20.988C6.33667 20.3133 5.99933 19.484 6 18.5C6 18.35 6.021 18.2333 6.063 18.15C6.105 18.0667 6.10067 18 6.05 17.95C5.99933 17.9 5.93267 17.896 5.85 17.938C5.76733 17.98 5.65067 18.0007 5.5 18C4.51667 18 3.68733 17.6627 3.012 16.988C2.33667 16.3133 1.99933 15.484 2 14.5C2.00067 13.516 2.33833 12.6867 3.013 12.012C3.68767 11.3373 4.51667 11 5.5 11C5.88333 11 6.23333 11.05 6.55 11.15C6.86667 11.25 7.16667 11.4 7.45 11.6L11.6 7.45C11.4 7.16667 11.25 6.86667 11.15 6.55C11.05 6.23333 11 5.88333 11 5.5C11 4.51667 11.3377 3.68733 12.013 3.012C12.6883 2.33667 13.5173 1.99933 14.5 2C15.4827 2.00067 16.312 2.33833 16.988 3.013C17.664 3.68767 18.0013 4.51667 18 5.5C18 5.65 17.9793 5.76667 17.938 5.85C17.8967 5.93333 17.9007 6 17.95 6.05C17.9993 6.1 18.066 6.10433 18.15 6.063C18.234 6.02167 18.3507 6.00067 18.5 6C19.4833 6 20.3127 6.33767 20.988 7.013C21.6633 7.68833 22.0007 8.51733 22 9.5C21.9993 10.4827 21.662 11.312 20.988 11.988C20.314 12.664 19.4847 13.0013 18.5 13C18.1167 13 17.7667 12.95 17.45 12.85C17.1333 12.75 16.8333 12.6 16.55 12.4L12.4 16.55C12.6 16.8333 12.75 17.1333 12.85 17.45C12.95 17.7667 13 18.1167 13 18.5C13 19.4833 12.6627 20.3127 11.988 20.988C11.3133 21.6633 10.484 22.0007 9.5 22Z" fill="#36454F"/>
</svg>
