<svg width="16" height="17" viewBox="0 0 16 17" fill="none" xmlns="http://www.w3.org/2000/svg">
<g id="fa6-solid:weight-scale" clip-path="url(#clip0_2679_1338)">
<path id="Vector" d="M4 6C4 4.93913 4.42143 3.92172 5.17157 3.17157C5.92172 2.42143 6.93913 2 8 2C9.06087 2 10.0783 2.42143 10.8284 3.17157C11.5786 3.92172 12 4.93913 12 6C12 7.06087 11.5786 8.07828 10.8284 8.82843C10.0783 9.57857 9.06087 10 8 10C6.93913 10 5.92172 9.57857 5.17157 8.82843C4.42143 8.07828 4 7.06087 4 6ZM12.2437 2.5C11.2344 1.27813 9.70938 0.5 8 0.5C6.29063 0.5 4.76562 1.27813 3.75625 2.5H2C0.896875 2.5 0 3.39687 0 4.5V14.5C0 15.6031 0.896875 16.5 2 16.5H14C15.1031 16.5 16 15.6031 16 14.5V4.5C16 3.39687 15.1031 2.5 14 2.5H12.2437ZM9.25 7.5C9.25 7.16875 9.12187 6.86875 8.90938 6.64375L9.95938 4.19688C10.0688 3.94375 9.95 3.65 9.69687 3.54063C9.44375 3.43125 9.15 3.55 9.04062 3.80312L7.99062 6.25C7.30312 6.25313 6.75 6.8125 6.75 7.5C6.75 8.19063 7.30937 8.75 8 8.75C8.69063 8.75 9.25 8.19063 9.25 7.5Z" fill="#E7B88B"/>
</g>
<defs>
<clipPath id="clip0_2679_1338">
<rect width="16" height="16" fill="white" transform="translate(0 0.5)"/>
</clipPath>
</defs>
</svg>
